<?xml version="1.0" encoding="UTF-8"?>
<svg version="1.1" xmlns="http://www.w3.org/2000/svg" width="912" height="274">
<path d="M0 0 C9.9011392 -0.16253731 19.80195857 -0.28674404 29.7041626 -0.3626852 C34.30276779 -0.39914282 38.90045706 -0.44855369 43.49853516 -0.52807617 C47.94010349 -0.60440689 52.38079368 -0.64604645 56.82296753 -0.6641407 C58.51347674 -0.67702673 60.20394047 -0.70219144 61.89407349 -0.7401104 C76.79327226 -1.06093932 76.79327226 -1.06093932 81.91772461 3.33496094 C83.5823822 5.16815186 83.5823822 5.16815186 85 7 C85.98024071 8.10827466 86.96067241 9.21638045 87.94140625 10.32421875 C88.82544924 11.43717304 89.6990966 12.5584589 90.5625 13.6875 C91.02793213 14.28908936 91.49336426 14.89067871 91.97290039 15.51049805 C107 35.29943182 107 35.29943182 107 44 C115.58 43.67 124.16 43.34 133 43 C127.93763937 27.81291811 119.08472682 14.10476289 107.1796875 3.26953125 C106 2 106 2 106 0 C116.01409431 -0.20908462 126.0276645 -0.36872201 136.04350185 -0.46630955 C140.69507199 -0.51316257 145.34514252 -0.57664382 149.99584961 -0.67895508 C154.4893509 -0.77718248 158.98141578 -0.83064695 163.47590828 -0.85389519 C165.18521797 -0.87044837 166.89445424 -0.90277573 168.60314751 -0.95157051 C181.95591033 -1.31750704 181.95591033 -1.31750704 187.00526428 1.93702698 C189.27898037 4.17771094 191.15038304 6.40452956 193 9 C193.99694727 10.20284147 194.99730606 11.40288116 196.00390625 12.59765625 C196.86854657 13.74381497 197.72142172 14.8989408 198.5625 16.0625 C199.02084229 16.69389893 199.47918457 17.32529785 199.95141602 17.97583008 C212.97426531 36.43943733 219.45849253 57.18382096 216.50390625 79.796875 C213.17862005 96.70510992 204.96354134 109.96460833 194 123 C193.36578125 123.75796875 192.7315625 124.5159375 192.078125 125.296875 C184.80927612 133.80826215 184.80927612 133.80826215 179.59576416 134.36076355 C178.22303331 134.36942782 176.85013691 134.36155699 175.47753906 134.34057617 C174.72593002 134.34101425 173.97432098 134.34145233 173.19993591 134.34190369 C170.72156582 134.33981766 168.24387657 134.31649603 165.765625 134.29296875 C164.04498667 134.28737212 162.32434355 134.28310234 160.60369873 134.28010559 C156.07935339 134.26866208 151.55529788 134.2391992 147.03106689 134.20599365 C142.41267823 134.1752821 137.79424264 134.16159794 133.17578125 134.14648438 C124.1170603 134.11432899 115.05855427 134.06313862 106 134 C106.96456415 129.12587264 109.85437572 126.8835633 113.53515625 123.65234375 C117.70786131 119.79530432 120.94241856 115.49008293 124.125 110.8125 C124.53258545 110.22549316 124.9401709 109.63848633 125.36010742 109.03369141 C129.24671462 103.16732161 131.16153313 97.81232048 134 91 C125.09 90.67 116.18 90.34 107 90 C106.67 91.65 106.34 93.3 106 95 C101.76169817 104.38402076 96.47204097 113.38798531 89.63769531 121.13059998 C88.34560553 122.60549745 87.12480308 124.14283711 85.93261719 125.69960022 C81.47244642 130.95604719 77.97974395 134.50658737 70.90539551 135.17017269 C66.95426116 135.30991644 63.03173026 135.21482034 59.08203125 135.07421875 C57.37144512 135.05366164 55.66079351 135.03802281 53.95011902 135.02705383 C49.48168099 134.98536675 45.01727625 134.87761435 40.55041504 134.75531006 C35.97882646 134.64208533 31.40657564 134.59239754 26.83398438 134.53710938 C17.8875659 134.41969546 8.9441203 134.23236271 0 134 C1.39699957 131.07957895 2.66184677 129.1793164 5.0625 127 C19.70882597 112.68792628 31.99058155 91.74009047 32.38085938 70.91113281 C32.31761659 44.21213564 21.18591221 24.22613204 3 5 C2.41863281 4.4534375 1.83726563 3.906875 1.23828125 3.34375 C0 2 0 2 0 0 Z " fill="#395597" transform="translate(111,67)"/>
<path d="M0 0 C10.01409431 -0.20908462 20.0276645 -0.36872201 30.04350185 -0.46630955 C34.69507199 -0.51316257 39.34514252 -0.57664382 43.99584961 -0.67895508 C48.4893509 -0.77718248 52.98141578 -0.83064695 57.47590828 -0.85389519 C59.18521797 -0.87044837 60.89445424 -0.90277573 62.60314751 -0.95157051 C75.95591033 -1.31750704 75.95591033 -1.31750704 81.00526428 1.93702698 C83.27898037 4.17771094 85.15038304 6.40452956 87 9 C87.99694727 10.20284147 88.99730606 11.40288116 90.00390625 12.59765625 C90.86854657 13.74381497 91.72142172 14.8989408 92.5625 16.0625 C93.02084229 16.69389893 93.47918457 17.32529785 93.95141602 17.97583008 C106.97426531 36.43943733 113.45849253 57.18382096 110.50390625 79.796875 C107.17862005 96.70510992 98.96354134 109.96460833 88 123 C87.36578125 123.75796875 86.7315625 124.5159375 86.078125 125.296875 C78.80927612 133.80826215 78.80927612 133.80826215 73.59576416 134.36076355 C72.22303331 134.36942782 70.85013691 134.36155699 69.47753906 134.34057617 C68.72593002 134.34101425 67.97432098 134.34145233 67.19993591 134.34190369 C64.72156582 134.33981766 62.24387657 134.31649603 59.765625 134.29296875 C58.04498667 134.28737212 56.32434355 134.28310234 54.60369873 134.28010559 C50.07935339 134.26866208 45.55529788 134.2391992 41.03106689 134.20599365 C36.41267823 134.1752821 31.79424264 134.16159794 27.17578125 134.14648438 C18.1170603 134.11432899 9.05855427 134.06313862 0 134 C0.96456415 129.12587264 3.85437572 126.8835633 7.53515625 123.65234375 C11.70786131 119.79530432 14.94241856 115.49008293 18.125 110.8125 C18.53258545 110.22549316 18.9401709 109.63848633 19.36010742 109.03369141 C23.24671462 103.16732161 25.16153313 97.81232048 28 91 C19.09 90.67 10.18 90.34 1 90 C1 89.67 1 89.34 1 89 C10.9 89 20.8 89 31 89 C32.80689833 72.73791507 34.44473333 55.39255504 28 40 C28 39.34 28 38.68 28 38 C27.34 38 26.68 38 26 38 C25.46632812 36.99582031 24.93265625 35.99164063 24.3828125 34.95703125 C18.0512201 23.25322223 11.10241263 12.30058292 1.1796875 3.26953125 C0 2 0 2 0 0 Z " fill="#EC393D" transform="translate(217,67)"/>
<path d="M0 0 C2.72943537 -0.05416741 5.45778564 -0.09375225 8.1875 -0.125 C9.34088867 -0.15013672 9.34088867 -0.15013672 10.51757812 -0.17578125 C14.78540211 -0.21241493 18.15044842 -0.08182581 22 2 C26.04739349 6.4810428 26.14012364 10.72444998 26.09765625 16.51171875 C26.09664917 17.15741821 26.09564209 17.80311768 26.09460449 18.46838379 C26.08938211 20.87477399 26.07542083 23.28113882 26.0625 25.6875 C26.041875 31.070625 26.02125 36.45375 26 42 C39.53 42 53.06 42 67 42 C67 28.14 67 14.28 67 0 C71.29 0 75.58 0 80 0 C81.98801042 1.98801042 81.16429898 5.94685757 81.17358398 8.66918945 C81.180271 9.47245667 81.18695801 10.27572388 81.19384766 11.10333252 C81.20793216 12.8537829 81.21981528 14.60425202 81.22979546 16.35473061 C81.24615817 19.1241851 81.26939479 21.89350119 81.29469299 24.66288757 C81.36559308 32.53910462 81.42557141 40.41537908 81.47680664 48.29174805 C81.50859358 53.10403434 81.54987226 57.91616369 81.59700203 62.72832298 C81.61302843 64.5643144 81.62534705 66.40034203 81.63390923 68.23638344 C81.64605907 70.80529329 81.67020857 73.3738343 81.69702148 75.94262695 C81.69761063 76.7027861 81.69819977 77.46294525 81.69880676 78.24613953 C81.74989498 81.93873264 81.7921722 84.93806071 84 88 C86.17208588 88.91160093 86.17208588 88.91160093 88.625 89.25 C89.44226563 89.39953125 90.25953125 89.5490625 91.1015625 89.703125 C91.72804688 89.80109375 92.35453125 89.8990625 93 90 C93 91.32 93 92.64 93 94 C89.93696422 94.08115993 86.87609185 94.14057409 83.8125 94.1875 C82.94818359 94.21263672 82.08386719 94.23777344 81.19335938 94.26367188 C72.75433013 94.36067221 72.75433013 94.36067221 69 91 C66.63973921 86.59928573 66.74026508 82.28693426 66.8046875 77.41796875 C66.80670166 76.69565063 66.80871582 75.97333252 66.81079102 75.22912598 C66.82120114 72.54851875 66.84912355 69.86800254 66.875 67.1875 C66.91625 61.185625 66.9575 55.18375 67 49 C53.47 49 39.94 49 26 49 C26 63.85 26 78.7 26 94 C21.38 94 16.76 94 12 94 C11.98969254 92.98602142 11.97938507 91.97204285 11.96876526 90.92733765 C11.87093719 81.36365448 11.76819439 71.80003502 11.66066074 62.23645592 C11.60553635 57.31993164 11.55213337 52.40340131 11.50268555 47.48681641 C11.45488704 42.74055573 11.40253913 37.9943649 11.34705925 33.24818802 C11.32670571 31.43895842 11.30798135 29.62970971 11.29092598 27.82044601 C11.26672638 25.28305934 11.23669393 22.74580285 11.20532227 20.20849609 C11.1995668 19.46330719 11.19381134 18.71811829 11.18788147 17.9503479 C11.13069522 13.87141514 10.78429201 10.00377791 10 6 C6.7 5.34 3.4 4.68 0 4 C0 2.68 0 1.36 0 0 Z " fill="#4D66A1" transform="translate(374,67)"/>
<path d="M0 0 C10.63007727 -0.40826755 19.15649687 -0.62068211 27.49169922 6.5612793 C29.96540471 8.9208692 32.01424504 11.5887567 34.0625 14.3125 C35.02080003 15.55962101 35.98049322 16.80567245 36.94140625 18.05078125 C37.43914551 18.69740723 37.93688477 19.3440332 38.44970703 20.01025391 C41.07867882 23.38444605 43.79137095 26.68967638 46.5 30 C51.56999717 36.21157104 56.55253765 42.48530142 61.4921875 48.80078125 C64.95773882 53.23016417 68.47815427 57.61534129 72 62 C73.32 63.65 74.64 65.3 76 67 C76.33 44.89 76.66 22.78 77 0 C78.98 0 80.96 0 83 0 C83 31.68 83 63.36 83 96 C78.13930022 94.78482506 77.27115837 93.34607469 74.1875 89.5 C73.74446533 88.9524707 73.30143066 88.40494141 72.8449707 87.84082031 C69.85490498 84.13051186 66.93100472 80.36801908 64.02734375 76.58984375 C61.31531203 73.1253408 58.53172086 69.72114421 55.75 66.3125 C51.06772255 60.57269568 46.45232797 54.78717095 41.89257812 48.94970703 C38.41701454 44.50828382 34.86432481 40.13549431 31.265625 35.79296875 C28.11624829 31.91054746 25.06919767 27.9461113 22 24 C21.67 47.1 21.34 70.2 21 94 C18.69 94 16.38 94 14 94 C13.99191315 93.02582626 13.98382629 92.05165253 13.97549438 91.04795837 C13.89789831 81.85243438 13.81012527 72.65705589 13.71247292 63.46172237 C13.66259764 58.73468377 13.61626696 54.00766657 13.578125 49.28051758 C13.54116126 44.71573813 13.4947715 40.15114161 13.44193649 35.58651924 C13.42345136 33.84790835 13.40832185 32.10925833 13.39665604 30.3705883 C13.37969252 27.92907995 13.35063405 25.48798519 13.31884766 23.04663086 C13.31668747 22.33308945 13.31452728 21.61954803 13.31230164 20.88438416 C13.23632216 16.2947717 12.61016612 12.30558144 11 8 C7.55549263 5.70366176 5.06187717 5.45983515 1 5 C0.67 3.35 0.34 1.7 0 0 Z " fill="#4A649F" transform="translate(558,67)"/>
<path d="M0 0 C2.625 -0.1875 2.625 -0.1875 5 0 C5.5576001 1.35641602 5.5576001 1.35641602 6.12646484 2.74023438 C7.87527549 6.99377807 9.62500662 11.24694278 11.375 15.5 C11.69301575 16.27297424 12.01103149 17.04594849 12.33868408 17.84234619 C16.72097693 28.49192266 21.12339266 39.13254556 25.58251953 49.75024414 C27.88061976 55.24152933 30.08346858 60.76069881 32.22900391 66.31323242 C36.41366629 78.93769923 36.41366629 78.93769923 45.1484375 88.1875 C47.5697856 89.19091364 47.5697856 89.19091364 51 90 C51 91.32 51 92.64 51 94 C46.49538784 96.25230608 41.10433724 95.23349714 36.4375 93.875 C28.45600895 90.89396117 24.56603637 86.0761127 21.04296875 78.46484375 C20.69878906 77.65144531 20.35460937 76.83804688 20 76 C19.62488281 75.13503906 19.24976563 74.27007812 18.86328125 73.37890625 C18 71 18 71 18 68 C4.8 68 -8.4 68 -22 68 C-22.99 71.3 -23.98 74.6 -25 78 C-26.18625822 80.91103196 -27.38902231 83.76780692 -28.6875 86.625 C-29.00783203 87.34300781 -29.32816406 88.06101562 -29.65820312 88.80078125 C-30.43339277 90.53628045 -31.21588982 92.26851287 -32 94 C-34.31 94 -36.62 94 -39 94 C-38.42552781 89.74670388 -37.41292435 86.18691013 -35.70703125 82.25390625 C-35.24449951 81.1764917 -34.78196777 80.09907715 -34.30541992 78.98901367 C-33.56642456 77.2928894 -33.56642456 77.2928894 -32.8125 75.5625 C-31.80351918 73.216648 -30.79569894 70.87029646 -29.7890625 68.5234375 C-29.30469727 67.39647461 -28.82033203 66.26951172 -28.32128906 65.10839844 C-26.2865594 60.3215954 -24.38204517 55.48962551 -22.51171875 50.63671875 C-21.16959172 47.40798421 -19.73401825 44.25684452 -18.25390625 41.08984375 C-14.37709131 32.74935929 -10.88482982 24.25684911 -7.37548828 15.75683594 C-6.52901516 13.70917714 -5.67873669 11.6631298 -4.828125 9.6171875 C-4.3321582 8.41690918 -3.83619141 7.21663086 -3.32519531 5.97998047 C-2 3 -2 3 0 0 Z M-3 23 C-5.16685022 27.92431431 -7.32104896 32.85389292 -9.46362305 37.78881836 C-10.19452862 39.46741664 -10.92889082 41.14451417 -11.66674805 42.82006836 C-12.72572971 45.22645641 -13.77223065 47.63793849 -14.81640625 50.05078125 C-15.31630821 51.17592888 -15.31630821 51.17592888 -15.8263092 52.32380676 C-17.77049119 56.5488726 -17.77049119 56.5488726 -17 61 C-7.1 61 2.8 61 13 61 C12.26249356 55.83745495 11.82805038 53.02335479 9.8203125 48.56640625 C9.38589844 47.58736328 8.95148437 46.60832031 8.50390625 45.59960938 C7.82134766 44.09624023 7.82134766 44.09624023 7.125 42.5625 C6.22989705 40.56464054 5.33663097 38.56595697 4.4453125 36.56640625 C4.02411133 35.62168457 3.60291016 34.67696289 3.16894531 33.70361328 C1.64461725 30.17804749 0.30067738 26.61347128 -1 23 C-1.66 23 -2.32 23 -3 23 Z " fill="#4E67A1" transform="translate(813,67)"/>
<path d="M0 0 C14.52247407 -0.79696504 14.52247407 -0.79696504 21 4 C27.18253818 9.75230079 30.38818036 16.37272765 33.625 24.0625 C34.12427002 25.21613037 34.62354004 26.36976074 35.13793945 27.55834961 C36.77761442 31.36445687 38.39180787 35.18052925 40 39 C40.59899852 40.41802053 41.19812219 41.83598821 41.79736328 43.25390625 C45.18503999 51.27725302 48.54708422 59.31093544 51.88354492 67.35571289 C52.5452793 68.92300898 53.23917027 70.47834053 54 72 C59.37821967 59.86885399 64.5044598 47.64262644 69.5625 35.375 C71.02097609 31.84066599 72.48054058 28.30678449 73.94140625 24.7734375 C74.28902008 23.93262634 74.63663391 23.09181519 74.99478149 22.2255249 C77.93655285 15.12420417 80.94584345 8.05369969 84 1 C86.31 1 88.62 1 91 1 C92 3 92 3 91.10717773 5.68286133 C90.63739502 6.8045874 90.1676123 7.92631348 89.68359375 9.08203125 C89.30328758 9.99706673 89.30328758 9.99706673 88.91529846 10.93058777 C88.37319023 12.23088036 87.82733021 13.52961399 87.27807617 14.8269043 C86.45819769 16.76360825 85.64889596 18.70442551 84.84179688 20.64648438 C82.33331966 26.65332705 79.74568382 32.6082377 76.9921875 38.5078125 C73.98159446 44.962749 71.22646471 51.51185083 68.50375366 58.09127808 C63.22776825 70.83258459 57.76537392 83.47111249 52 96 C50.68 96 49.36 96 48 96 C43.6824281 86.8217836 39.64491182 77.55157931 35.75 68.1875 C35.18170152 66.82664811 34.61317577 65.46589112 34.04443359 64.10522461 C30.97816164 56.76534223 27.9272446 49.41908643 24.87646484 42.07275391 C22.92500551 37.37874424 20.96446815 32.68857777 19 28 C18.65710938 27.17822266 18.31421875 26.35644531 17.9609375 25.50976562 C17.02439699 23.27349863 16.07692431 21.04225374 15.125 18.8125 C14.61195313 17.60207031 14.09890625 16.39164063 13.5703125 15.14453125 C11.61734033 11.23372878 9.79456213 7.95950129 5.859375 5.85546875 C5.16328125 5.63503906 4.4671875 5.41460937 3.75 5.1875 C1.89375 4.5996875 1.89375 4.5996875 0 4 C0 2.68 0 1.36 0 0 Z " fill="#4E67A1" transform="translate(688,66)"/>
<path d="M0 0 C18.39568899 -0.80369515 18.39568899 -0.80369515 26.625 6.25 C33.62700087 14.35757995 39.04947306 23.37994199 44.609375 32.5078125 C45.24617188 33.54164062 45.88296875 34.57546875 46.5390625 35.640625 C47.10834473 36.57422852 47.67762695 37.50783203 48.26416016 38.46972656 C49.97195595 40.95912117 51.79786939 42.94435659 54 45 C59.70458066 36.03856427 65.40543201 27.08249239 70.8125 17.9375 C79.16879085 3.83120915 79.16879085 3.83120915 83 0 C84.99958364 -0.04080783 87.00045254 -0.04254356 89 0 C88.54145031 5.36396503 85.56298652 9.19057768 82.6875 13.5625 C81.59297341 15.25777432 80.5005937 16.95443631 79.41015625 18.65234375 C78.56541748 19.9669458 78.56541748 19.9669458 77.70361328 21.30810547 C74.42225052 26.49301602 71.30664341 31.77793461 68.1862793 37.06079102 C67.72519775 37.83737061 67.26411621 38.6139502 66.7890625 39.4140625 C66.33837402 40.19177002 65.88768555 40.96947754 65.42333984 41.77075195 C64 44 64 44 62.34619141 45.84448242 C55.62996418 53.71334597 57.10837154 64.30076456 57.125 74.0625 C57.10685456 75.99677187 57.0860461 77.9310207 57.0625 79.86523438 C57.0108981 84.57711656 56.99555188 89.28785093 57 94 C52.38 94 47.76 94 43 94 C43.01683838 92.85635986 43.03367676 91.71271973 43.05102539 90.53442383 C43.10223018 86.2305086 43.09310997 81.92835095 43.06713867 77.62426758 C43.06408455 75.77298733 43.07669912 73.92160432 43.10620117 72.07055664 C43.3062855 58.6139764 41.84845494 51.48220283 33 41 C31.55882819 38.90467699 30.14548582 36.78991899 28.76171875 34.65625 C28.08689453 33.63789062 27.41207031 32.61953125 26.71679688 31.5703125 C25.34361925 29.49270401 23.97124602 27.41456367 22.59960938 25.3359375 C21.93123047 24.32789062 21.26285156 23.31984375 20.57421875 22.28125 C19.98213623 21.38470703 19.39005371 20.48816406 18.7800293 19.56445312 C16.99759065 16.92251632 16.99759065 16.92251632 14.77661133 14.29492188 C13 12 13 12 13 10 C9.98029212 8.43370292 6.91349586 7.12374836 3.75 5.875 C2.85796875 5.52179688 1.9659375 5.16859375 1.046875 4.8046875 C0.03367187 4.40636719 0.03367187 4.40636719 -1 4 C-0.67 2.68 -0.34 1.36 0 0 Z " fill="#4E67A1" transform="translate(466,67)"/>
<path d="M0 0 C2.14576637 -0.02685938 4.29162645 -0.04633088 6.4375 -0.0625 C7.63246094 -0.07410156 8.82742188 -0.08570312 10.05859375 -0.09765625 C13 0 13 0 14 1 C14.10382162 3.59534754 14.14361543 6.16495012 14.1418457 8.76098633 C14.14532013 9.57400711 14.14879456 10.38702789 14.15237427 11.22468567 C14.15974505 12.99642561 14.16508335 14.76817487 14.16866493 16.53992653 C14.17580919 19.34299406 14.19146047 22.14588435 14.21000671 24.94889832 C14.26257103 32.92074136 14.31046092 40.89248937 14.32592773 48.86450195 C14.33599915 53.73525385 14.36530457 58.6055636 14.40724754 63.47614098 C14.41957717 65.33445583 14.42467523 67.19283309 14.42244911 69.05118752 C14.42010092 71.65154942 14.44222553 74.25063978 14.4699707 76.85083008 C14.46336929 77.62033997 14.45676788 78.38984985 14.44996643 79.18267822 C14.51052484 82.63541265 14.73691788 84.63984689 16.79875183 87.46244812 C19.77519081 89.54146375 22.42811172 89.72523936 26 90 C26 91.32 26 92.64 26 94 C22.93696422 94.08115993 19.87609185 94.14057409 16.8125 94.1875 C15.94818359 94.21263672 15.08386719 94.23777344 14.19335938 94.26367188 C5.62994236 94.36210196 5.62994236 94.36210196 2 91 C-0.07081973 86.18184613 -0.27506753 81.67962865 -0.22705078 76.51611328 C-0.22734283 75.68618362 -0.22763489 74.85625397 -0.22793579 74.00117493 C-0.22654902 71.27411224 -0.21101871 68.54732711 -0.1953125 65.8203125 C-0.19158005 63.92316843 -0.18873417 62.02602242 -0.18673706 60.12887573 C-0.17911891 55.14760978 -0.15948604 50.16646137 -0.1373291 45.1852417 C-0.11683148 40.09746897 -0.10772698 35.00967716 -0.09765625 29.921875 C-0.07623842 19.94786516 -0.04212445 9.97394238 0 0 Z " fill="#49639F" transform="translate(665,67)"/>
<path d="M0 0 C12.69334834 5.51760412 21.0749353 21.22082946 27 33 C27.36867188 33.6909375 27.73734375 34.381875 28.1171875 35.09375 C36.74951745 52.49224447 37.02329672 71.83905471 31 90 C27.88534786 98.91434922 23.69915838 106.50320989 18 114 C17.05981475 115.3731653 16.12201275 116.74796798 15.1875 118.125 C14.465625 119.07375 13.74375 120.0225 13 121 C12.34 121 11.68 121 11 121 C10.74476562 121.58265625 10.48953125 122.1653125 10.2265625 122.765625 C8.88258913 125.21388223 7.38189704 126.81743248 5.375 128.75 C4.74335937 129.36359375 4.11171875 129.9771875 3.4609375 130.609375 C2.97882812 131.06828125 2.49671875 131.5271875 2 132 C1.34 131.67 0.68 131.34 0 131 C0.32685791 130.50822266 0.65371582 130.01644531 0.99047852 129.50976562 C12.80811317 111.60564391 23.14458213 92.9805201 24 71 C24.03996094 70.22785156 24.07992187 69.45570313 24.12109375 68.66015625 C24.7794693 44.76499646 14.66699063 21.55662227 0.9609375 2.3984375 C0 1 0 1 0 0 Z " fill="#9BB1D7" transform="translate(46,68)"/>
<path d="M0 0 C5.75764755 2.55614243 10.65677568 7.69017314 14 13 C14 13.66 14 14.32 14 15 C14.66 15 15.32 15 16 15 C30.0699357 34.81593593 36.83461352 56.30955332 33.50390625 80.62109375 C32.82721339 83.49990576 32.00283594 86.2188558 31 89 C30.50693359 90.43279297 30.50693359 90.43279297 30.00390625 91.89453125 C25.56070257 103.62520395 18.59337115 113.79194026 10.0078125 122.87109375 C8.27453152 124.70891113 6.68896789 126.58178618 5.125 128.5625 C3 131 3 131 0 132 C1.28585887 128.42955692 2.81009334 125.74322814 5.125 122.75 C14.47911976 109.61525684 22.64516136 91.3225773 23 75 C23.03867188 73.73671875 23.07734375 72.4734375 23.1171875 71.171875 C23.63391552 46.83843031 16.6555734 24.85056826 2.2265625 5.171875 C0 2 0 2 0 0 Z " fill="#5C76AE" transform="translate(102,68)"/>
<path d="M0 0 C14.49928706 6.60488131 24.50145402 26.23815514 30.01879883 40.41259766 C36.18312092 57.001968 36.51965171 77.58208222 29.3359375 93.890625 C25.14152051 102.89786661 19.95810263 111.0595963 14 119 C13.29359375 119.94488281 12.5871875 120.88976562 11.859375 121.86328125 C11.24578125 122.56839844 10.6321875 123.27351563 10 124 C9.34 124 8.68 124 8 124 C7.773125 124.5775 7.54625 125.155 7.3125 125.75 C5.66961977 128.5663661 3.60466773 130.08077114 1 132 C1 128.06059542 2.84637157 125.99708535 5 122.875 C19.67925748 100.75245083 27.24913086 74.71807445 21.92431641 48.17919922 C18.13826522 32.20335434 10.93261377 18.39923656 2.01220703 4.72314453 C1 3 1 3 0 0 Z " fill="#627EB4" transform="translate(88,68)"/>
<path d="M0 0 C14.24721084 6.33559597 24.38323356 26.00220837 29.8125 39.75 C36.44251236 57.39986226 36.66250131 77.64327356 29 95 C24.96538124 103.70576718 19.87873798 111.43642784 14 119 C13.30261719 119.928125 12.60523437 120.85625 11.88671875 121.8125 C10.95279297 122.8953125 10.95279297 122.8953125 10 124 C9.34 124 8.68 124 8 124 C7.7525 124.5775 7.505 125.155 7.25 125.75 C5.83316683 128.3002997 4.12372463 130.01785701 2 132 C1.34 131.67 0.68 131.34 0 131 C0.29656494 130.53327881 0.59312988 130.06655762 0.89868164 129.58569336 C13.47231407 109.6922455 23.17180931 90.81951308 23.1875 66.75 C23.19974609 65.77675781 23.21199219 64.80351562 23.22460938 63.80078125 C23.27006968 40.97970606 13.60204717 21.44085406 1.1796875 2.8359375 C0 1 0 1 0 0 Z " fill="#6E8AC0" transform="translate(74,68)"/>
<path d="M0 0 C15.68014565 7.04570421 25.01354541 28.29450913 31.3828125 43.24609375 C37.89988952 61.86305852 34.9608133 82.67244988 26.8125 100.125 C21.80753518 109.64612204 15.26041054 117.76355544 8.125 125.75 C7.66061523 126.27609863 7.19623047 126.80219727 6.71777344 127.34423828 C5.54173448 128.62394417 4.27614046 129.82009309 3 131 C2.01 131 1.02 131 0 131 C0.96099609 129.51113281 0.96099609 129.51113281 1.94140625 127.9921875 C13.40944507 110.05961721 22.09081535 92.47178903 24 71 C24.08378906 70.13761719 24.16757813 69.27523437 24.25390625 68.38671875 C25.39360339 44.74719427 13.90778543 22.13276456 1.25 2.9765625 C0 1 0 1 0 0 Z " fill="#89A1CF" transform="translate(60,68)"/>
<path d="M0 0 C1.73316094 0.11810296 3.46244192 0.2951348 5.1875 0.5 C9.40092536 0.94208219 12.82414925 0.71295013 17 0 C19.63445793 0.80497326 20.6469653 1.42137996 22.08203125 3.7734375 C23.72919357 7.76868228 23.66315974 11.76808371 23 16 C20.875 19.125 20.875 19.125 18 21 C14.6875 21.3125 14.6875 21.3125 12 21 C11.34 23.31 10.68 25.62 10 28 C8.68 27.67 7.36 27.34 6 27 C5.67 20.07 5.34 13.14 5 6 C3.35 6.33 1.7 6.66 0 7 C-0.33 11.29 -0.66 15.58 -1 20 C-2.32 20.33 -3.64 20.66 -5 21 C-6 20 -6 20 -6.11352539 18.14233398 C-6.10828857 17.35157471 -6.10305176 16.56081543 -6.09765625 15.74609375 C-6.09443359 14.89208984 -6.09121094 14.03808594 -6.08789062 13.15820312 C-6.07951172 12.26037109 -6.07113281 11.36253906 -6.0625 10.4375 C-6.05798828 9.53580078 -6.05347656 8.63410156 -6.04882812 7.70507812 C-6.03700225 5.46998686 -6.0205222 3.23502563 -6 1 C-4.7934375 1.0309375 -4.7934375 1.0309375 -3.5625 1.0625 C-1.06645115 1.29633621 -1.06645115 1.29633621 0 0 Z M13 4 C10.36673543 6.63326457 10.28819365 8.32553101 10 12 C10.83486387 14.80067065 10.83486387 14.80067065 12 17 C15.6909351 16.65714799 15.6909351 16.65714799 18.375 14.3125 C19.20815264 11.22983524 18.80044982 9.06839098 18 6 C17.34 5.34 16.68 4.68 16 4 C15.01 4 14.02 4 13 4 Z " fill="#EE8C8F" transform="translate(787,180)"/>
<path d="M0 0 C0.763125 0.20625 1.52625 0.4125 2.3125 0.625 C2 2.5625 2 2.5625 1.3125 4.625 C0.3225 4.955 -0.6675 5.285 -1.6875 5.625 C-2.0175 6.285 -2.3475 6.945 -2.6875 7.625 C-0.0475 7.625 2.5925 7.625 5.3125 7.625 C6.6325 10.925 7.9525 14.225 9.3125 17.625 C10.6325 14.325 11.9525 11.025 13.3125 7.625 C14.9625 7.625 16.6125 7.625 18.3125 7.625 C17.38063213 12.72722952 15.71865105 17.39231532 13.9375 22.25 C13.63328125 23.10851562 13.3290625 23.96703125 13.015625 24.8515625 C12.71398437 25.6765625 12.41234375 26.5015625 12.1015625 27.3515625 C11.83037598 28.10002441 11.55918945 28.84848633 11.27978516 29.61962891 C10.22288785 31.81078349 9.2093233 33.10789847 7.3125 34.625 C4.625 34.8125 4.625 34.8125 2.3125 34.625 C1.9825 33.305 1.6525 31.985 1.3125 30.625 C2.9625 30.295 4.6125 29.965 6.3125 29.625 C5.7962985 23.68868271 4.41895166 17.77283418 1.3125 12.625 C-0.0075 12.295 -1.3275 11.965 -2.6875 11.625 C-2.6875 16.905 -2.6875 22.185 -2.6875 27.625 C-4.0075 27.295 -5.3275 26.965 -6.6875 26.625 C-6.6875 21.675 -6.6875 16.725 -6.6875 11.625 C-7.6775 11.295 -8.6675 10.965 -9.6875 10.625 C-9.6875 9.635 -9.6875 8.645 -9.6875 7.625 C-9.0275 7.295 -8.3675 6.965 -7.6875 6.625 C-7.378125 5.820625 -7.06875 5.01625 -6.75 4.1875 C-5.27248318 0.62407709 -3.8935968 -0.54329258 0 0 Z " fill="#EA5357" transform="translate(679.6875,173.375)"/>
<path d="M0 0 C2.40870329 0.29224863 2.40870329 0.29224863 5.875 -0.51171875 C9.125 -0.82421875 9.125 -0.82421875 11.3125 0.640625 C13.82127293 4.149663 13.56501763 7.28924352 13.375 11.42578125 C13.35695313 12.17085937 13.33890625 12.9159375 13.3203125 13.68359375 C13.27335649 15.51487826 13.20161652 17.34549774 13.125 19.17578125 C11.1875 19.73828125 11.1875 19.73828125 9.125 20.17578125 C8.125 19.17578125 8.125 19.17578125 8.02734375 15.796875 C8.03401631 14.40231048 8.04597468 13.00776382 8.0625 11.61328125 C8.06701172 10.90236328 8.07152344 10.19144531 8.07617188 9.45898438 C8.08799136 7.69788112 8.10592737 5.93682089 8.125 4.17578125 C6.475 4.17578125 4.825 4.17578125 3.125 4.17578125 C2.795 9.12578125 2.465 14.07578125 2.125 19.17578125 C0.805 19.50578125 -0.515 19.83578125 -1.875 20.17578125 C-2.875 19.17578125 -2.875 19.17578125 -2.97265625 15.796875 C-2.96598369 14.40231048 -2.95402532 13.00776382 -2.9375 11.61328125 C-2.93298828 10.90236328 -2.92847656 10.19144531 -2.92382812 9.45898438 C-2.91200864 7.69788112 -2.89407263 5.93682089 -2.875 4.17578125 C-4.195 4.50578125 -5.515 4.83578125 -6.875 5.17578125 C-7.82761487 9.93885562 -7.95833357 14.34243405 -7.875 19.17578125 C-9.525 19.50578125 -11.175 19.83578125 -12.875 20.17578125 C-14.52997356 16.86583412 -13.97584335 13.18455125 -13.9375 9.55078125 C-13.93298828 8.74898437 -13.92847656 7.9471875 -13.92382812 7.12109375 C-13.91203168 5.13929119 -13.89409605 3.15752692 -13.875 1.17578125 C-13.111875 1.03140625 -12.34875 0.88703125 -11.5625 0.73828125 C-7.18954853 -0.17698766 -4.5170785 -0.68918661 0 0 Z " fill="#F1BCBE" transform="translate(620.875,180.82421875)"/>
<path d="M0 0 C2.5625 1.75 2.5625 1.75 4 4 C3.75 6.75 3.75 6.75 3 9 C1.68 8.67 0.36 8.34 -1 8 C-1 7.01 -1 6.02 -1 5 C-3.64 5 -6.28 5 -9 5 C-9.33 6.32 -9.66 7.64 -10 9 C-9.16855469 9.18175781 -8.33710937 9.36351562 -7.48046875 9.55078125 C-6.39378906 9.80214844 -5.30710937 10.05351562 -4.1875 10.3125 C-2.56908203 10.67794922 -2.56908203 10.67794922 -0.91796875 11.05078125 C1.97929712 11.99326533 3.2583743 12.54263771 5 15 C5.4375 18.4375 5.4375 18.4375 5 22 C2.73304929 24.8714709 0.74050267 26.75632963 -2.953125 27.2734375 C-7.16792252 27.4598061 -10.10409848 27.43704829 -13.5 24.75 C-16.76612903 21.15725806 -16.76612903 21.15725806 -17 18 C-15.35 17.67 -13.7 17.34 -12 17 C-11.67 17.66 -11.34 18.32 -11 19 C-9.23173046 21.17282569 -9.23173046 21.17282569 -7.01953125 21.265625 C-5.01111857 21.25140615 -3.00415878 21.13142025 -1 21 C-1 19.68 -1 18.36 -1 17 C-1.83144531 16.76925781 -2.66289063 16.53851563 -3.51953125 16.30078125 C-4.60621094 15.97464844 -5.69289063 15.64851563 -6.8125 15.3125 C-8.43091797 14.84263672 -8.43091797 14.84263672 -10.08203125 14.36328125 C-13.53594777 12.74960406 -14.52145384 11.47298792 -16 8 C-15.5625 4.875 -15.5625 4.875 -14 2 C-9.14234647 -1.58541094 -5.61770168 -1.35912138 0 0 Z " fill="#EE8083" transform="translate(592,174)"/>
<path d="M0 0 C1.18613892 0.00785522 1.18613892 0.00785522 2.39624023 0.01586914 C3.67724609 0.02070313 3.67724609 0.02070313 4.98413086 0.02563477 C5.88196289 0.03401367 6.77979492 0.04239258 7.70483398 0.05102539 C8.6065332 0.05553711 9.50823242 0.06004883 10.43725586 0.06469727 C12.67234712 0.07652315 14.90730835 0.09300319 17.14233398 0.11352539 C17.14233398 1.43352539 17.14233398 2.75352539 17.14233398 4.11352539 C12.52233398 4.44352539 7.90233398 4.77352539 3.14233398 5.11352539 C3.14233398 6.76352539 3.14233398 8.41352539 3.14233398 10.11352539 C7.43233398 10.44352539 11.72233398 10.77352539 16.14233398 11.11352539 C16.14233398 12.43352539 16.14233398 13.75352539 16.14233398 15.11352539 C11.52233398 15.11352539 6.90233398 15.11352539 2.14233398 15.11352539 C2.14233398 17.42352539 2.14233398 19.73352539 2.14233398 22.11352539 C7.09233398 22.11352539 12.04233398 22.11352539 17.14233398 22.11352539 C17.47233398 23.43352539 17.80233398 24.75352539 18.14233398 26.11352539 C17.14233398 27.11352539 17.14233398 27.11352539 15.28466797 27.22705078 C14.49390869 27.22181396 13.70314941 27.21657715 12.88842773 27.21118164 C12.03442383 27.20795898 11.18041992 27.20473633 10.30053711 27.20141602 C9.40270508 27.19303711 8.50487305 27.1846582 7.57983398 27.17602539 C6.67813477 27.17151367 5.77643555 27.16700195 4.84741211 27.16235352 C2.61232085 27.15052764 0.37735962 27.13404759 -1.85766602 27.11352539 C-2.87021634 24.0758744 -2.9866719 22.00190318 -2.99047852 18.82446289 C-2.99176758 17.80094727 -2.99305664 16.77743164 -2.99438477 15.72290039 C-2.99051758 14.65555664 -2.98665039 13.58821289 -2.98266602 12.48852539 C-2.9865332 11.41344727 -2.99040039 10.33836914 -2.99438477 9.23071289 C-2.9930957 8.20977539 -2.99180664 7.18883789 -2.99047852 6.13696289 C-2.98935059 5.19771973 -2.98822266 4.25847656 -2.98706055 3.29077148 C-2.82508673 0.56533281 -2.73061728 0.16687305 0 0 Z " fill="#ECA2A4" transform="translate(711.857666015625,173.886474609375)"/>
<path d="M0 0 C2.60251121 2.19158838 3.8267511 3.78509208 4.3125 7.19140625 C4.42275434 11.37418034 4.18777193 14.35108075 2 18 C-0.81865074 20.19228391 -2.11093985 19.98890601 -5.75 19.625 C-7.35875 19.315625 -7.35875 19.315625 -9 19 C-8.814375 19.94875 -8.62875 20.8975 -8.4375 21.875 C-8 25 -8 25 -9 27 C-10.32 27 -11.64 27 -13 27 C-13 18.09 -13 9.18 -13 0 C-4.09090909 -1.27272727 -4.09090909 -1.27272727 0 0 Z M-6 3 C-8.24510613 5.43219831 -8.97120564 6.71781528 -9.3125 10.0625 C-9.20953488 13.18789679 -9.20953488 13.18789679 -7 16 C-3.70924004 15.62095792 -3.70924004 15.62095792 -1 14 C-0.92820036 12.48071962 -0.91607993 10.95832518 -0.9375 9.4375 C-0.94652344 8.61121094 -0.95554687 7.78492188 -0.96484375 6.93359375 C-0.97644531 6.29550781 -0.98804688 5.65742188 -1 5 C-3.475 4.01 -3.475 4.01 -6 3 Z " fill="#EFA7A9" transform="translate(650,181)"/>
<path d="M0 0 C3.39573318 1.259483 4.4453521 3.54175246 5.90625 6.70703125 C5.90625 8.35703125 5.90625 10.00703125 5.90625 11.70703125 C1.61625 11.70703125 -2.67375 11.70703125 -7.09375 11.70703125 C-6.43375 13.02703125 -5.77375 14.34703125 -5.09375 15.70703125 C-2.62108235 15.36258244 -2.62108235 15.36258244 -0.09375 14.70703125 C0.23625 14.04703125 0.56625 13.38703125 0.90625 12.70703125 C2.22625 12.70703125 3.54625 12.70703125 4.90625 12.70703125 C5.23625 13.69703125 5.56625 14.68703125 5.90625 15.70703125 C2.17155612 20.3753986 2.17155612 20.3753986 -1.03125 21.21484375 C-4.97986811 21.43919705 -6.72738733 20.96426462 -10.03125 18.64453125 C-12.51382096 15.10874837 -13.09375 13.01989803 -13.09375 8.70703125 C-11.92165271 5.49918605 -10.63910219 3.33317635 -8.40625 0.76953125 C-5.38573568 -0.61827263 -3.24833067 -0.55148898 0 0 Z M-7.09375 5.70703125 C-7.09375 6.36703125 -7.09375 7.02703125 -7.09375 7.70703125 C-4.45375 7.70703125 -1.81375 7.70703125 0.90625 7.70703125 C0.57625 6.71703125 0.24625 5.72703125 -0.09375 4.70703125 C-3.46479174 3.24624649 -3.87524208 3.5613593 -7.09375 5.70703125 Z " fill="#EA5256" transform="translate(861.09375,180.29296875)"/>
<path d="M0 0 C1.9375 1.0625 1.9375 1.0625 3 3 C3.53005137 5.68205991 3.77575685 8.26423356 4 11 C-0.29 11 -4.58 11 -9 11 C-8.34 12.32 -7.68 13.64 -7 15 C-4.52733235 14.65555119 -4.52733235 14.65555119 -2 14 C-1.67 13.34 -1.34 12.68 -1 12 C0.65 12.33 2.3 12.66 4 13 C2.75023244 16.65316671 2.32901247 17.78065836 -1 20 C-7.97233202 20.55335968 -7.97233202 20.55335968 -11.4375 18.6875 C-14.50679211 15.37266452 -14.3278207 11.50638247 -14.29296875 7.2265625 C-13.85946619 3.93194303 -12.37450458 2.23482784 -10 0 C-6.74113759 -1.62943121 -3.43230961 -0.76664293 0 0 Z M-8 4 C-8.33 4.99 -8.66 5.98 -9 7 C-6.36 7 -3.72 7 -1 7 C-1.33 6.01 -1.66 5.02 -2 4 C-3.98 4 -5.96 4 -8 4 Z " fill="#EE7A7E" transform="translate(775,181)"/>
<path d="M0 0 C2.875 2.375 2.875 2.375 5 5 C5 5.66 5 6.32 5 7 C1.28400809 7.20086443 0.22791555 7.1519437 -3 5 C-3.99 5.495 -3.99 5.495 -5 6 C-1.7 7.65 1.6 9.3 5 11 C5.48309179 17.40096618 5.48309179 17.40096618 3.4375 19.9375 C0.03939888 21.41872356 -2.32644824 21.45113794 -6 21 C-8.9375 19 -8.9375 19 -11 17 C-10.67 15.68 -10.34 14.36 -10 13 C-8.0625 13.375 -8.0625 13.375 -6 14 C-5.67 14.66 -5.34 15.32 -5 16 C-2.47266765 16.65555119 -2.47266765 16.65555119 0 17 C0 16.01 0 15.02 0 14 C-0.62648438 13.81824219 -1.25296875 13.63648438 -1.8984375 13.44921875 C-2.71570313 13.19785156 -3.53296875 12.94648438 -4.375 12.6875 C-5.18710937 12.44386719 -5.99921875 12.20023438 -6.8359375 11.94921875 C-9 11 -9 11 -11 8 C-10.84549572 4.90991439 -10.43226549 3.46428516 -8.3125 1.1875 C-5.21737291 -0.40188959 -3.43979993 -0.56159999 0 0 Z " fill="#EE8488" transform="translate(842,180)"/>
<path d="M0 0 C2.70248174 2.53199808 2.99417673 3.92701507 3.29296875 7.671875 C3.27316751 9.03156035 3.23759202 10.3910934 3.1875 11.75 C3.16719727 12.79607422 3.16719727 12.79607422 3.14648438 13.86328125 C3.1112945 15.57585541 3.05749155 17.28802941 3 19 C1.0625 19.5625 1.0625 19.5625 -1 20 C-2.94090826 18.05909174 -2.39919435 14.52706098 -2.5625 11.9375 C-2.68818359 10.00197266 -2.68818359 10.00197266 -2.81640625 8.02734375 C-2.87699219 7.02832031 -2.93757812 6.02929688 -3 5 C-4.65 4.67 -6.3 4.34 -8 4 C-8.33 8.95 -8.66 13.9 -9 19 C-10.32 19.33 -11.64 19.66 -13 20 C-14.65497356 16.69005287 -14.10084335 13.00877 -14.0625 9.375 C-14.05798828 8.57320312 -14.05347656 7.77140625 -14.04882812 6.9453125 C-14.03703168 4.96350994 -14.01909605 2.98174567 -14 1 C-13.37867188 0.84789062 -12.75734375 0.69578125 -12.1171875 0.5390625 C-10.0262178 0.03386846 -10.0262178 0.03386846 -8.125 -0.625 C-5.13305532 -1.15299024 -2.92154301 -0.80808637 0 0 Z " fill="#EF8689" transform="translate(746,181)"/>
<path d="M0 0 C0 6.27 0 12.54 0 19 C-1.32 19.33 -2.64 19.66 -4 20 C-5.94090826 18.05909174 -5.39919435 14.52706098 -5.5625 11.9375 C-5.68818359 10.00197266 -5.68818359 10.00197266 -5.81640625 8.02734375 C-5.87699219 7.02832031 -5.93757812 6.02929688 -6 5 C-7.65 5.33 -9.3 5.66 -11 6 C-11.33 10.29 -11.66 14.58 -12 19 C-13.32 19.33 -14.64 19.66 -16 20 C-16.33 13.73 -16.66 7.46 -17 1 C-9.85562799 -1.04124915 -7.01088216 -0.96039482 0 0 Z " fill="#EF9294" transform="translate(829,181)"/>
<path d="M0 0 C0.99 0 1.98 0 3 0 C3 1.98 3 3.96 3 6 C3.99 6 4.98 6 6 6 C6 7.32 6 8.64 6 10 C5.01 10 4.02 10 3 10 C3.08693141 11.79258558 3.19510504 13.58415144 3.3125 15.375 C3.37050781 16.37273437 3.42851563 17.37046875 3.48828125 18.3984375 C3.65714844 19.25695312 3.82601562 20.11546875 4 21 C4.99 21.66 5.98 22.32 7 23 C6.67 23.99 6.34 24.98 6 26 C3.625 26.125 3.625 26.125 1 26 C-2.27798068 22.72201932 -1.45851611 18.43753585 -1.65625 13.96875 C-1.70201329 10.88393229 -1.70201329 10.88393229 -4 9 C-4 8.01 -4 7.02 -4 6 C-3.34 6 -2.68 6 -2 6 C-1.855625 5.195625 -1.71125 4.39125 -1.5625 3.5625 C-1 1 -1 1 0 0 Z " fill="#EE9EA1" transform="translate(754,175)"/>
<path d="M0 0 C5.61 0 11.22 0 17 0 C17 0.66 17 1.32 17 2 C12.38 2.33 7.76 2.66 3 3 C3 5.31 3 7.62 3 10 C7.29 10.33 11.58 10.66 16 11 C16 11.66 16 12.32 16 13 C11.38 13 6.76 13 2 13 C2.33 15.97 2.66 18.94 3 22 C9.93 22.495 9.93 22.495 17 23 C17 23.66 17 24.32 17 25 C11.06 25 5.12 25 -1 25 C-0.67 16.75 -0.34 8.5 0 0 Z " fill="#E93438" transform="translate(711,175)"/>
<path d="M0 0 C3.33333333 0 6.66666667 0 10 0 C11.216875 -0.020625 12.43375 -0.04125 13.6875 -0.0625 C17 0 17 0 18 1 C17.909084 3.70108504 17.76259234 6.36930311 17.5625 9.0625 C17.51029297 9.82111328 17.45808594 10.57972656 17.40429688 11.36132812 C17.27424165 13.24121722 17.13771962 15.12065685 17 17 C16.67 17 16.34 17 16 17 C16 12.38 16 7.76 16 3 C14.02 3 12.04 3 10 3 C9.67 7.95 9.34 12.9 9 18 C7.68 18.33 6.36 18.66 5 19 C4 18 4 18 3.90234375 14.40234375 C3.9090178 12.91403133 3.92097817 11.42573568 3.9375 9.9375 C3.94201172 9.17888672 3.94652344 8.42027344 3.95117188 7.63867188 C3.9629932 5.75908129 3.98092922 3.87953101 4 2 C2.68 1.67 1.36 1.34 0 1 C0 0.67 0 0.34 0 0 Z " fill="#EB4448" transform="translate(614,182)"/>
<path d="M0 0 C1.32 0 2.64 0 4 0 C4 8.58 4 17.16 4 26 C2.68 26.33 1.36 26.66 0 27 C-1.74545605 25.25454395 -1.1302316 22.83875783 -1.1328125 20.46875 C-1.13410156 19.34855469 -1.13539063 18.22835937 -1.13671875 17.07421875 C-1.13285156 15.89472656 -1.12898437 14.71523437 -1.125 13.5 C-1.12886719 12.32050781 -1.13273438 11.14101562 -1.13671875 9.92578125 C-1.13542969 8.80558594 -1.13414062 7.68539062 -1.1328125 6.53125 C-1.13168457 5.49548828 -1.13055664 4.45972656 -1.12939453 3.39257812 C-1 1 -1 1 0 0 Z " fill="#EE878A" transform="translate(657,174)"/>
<path d="M0 0 C0.66 0 1.32 0 2 0 C2 0.66 2 1.32 2 2 C2.66 2 3.32 2 4 2 C3.979375 3.19625 3.95875 4.3925 3.9375 5.625 C3.93117429 9.18004869 4.30111125 12.50555624 5 16 C6.65 16.33 8.3 16.66 10 17 C10 17.33 10 17.66 10 18 C8.02 18 6.04 18 4 18 C4 20.31 4 22.62 4 25 C2.68 25.33 1.36 25.66 0 26 C0 17.42 0 8.84 0 0 Z " fill="#EB5E61" transform="translate(794,182)"/>
<path d="M0 0 C0.33 0 0.66 0 1 0 C1 1.65 1 3.3 1 5 C2.32 5 3.64 5 5 5 C5 5.99 5 6.98 5 8 C4.01 8 3.02 8 2 8 C2 13.28 2 18.56 2 24 C0.68 23.67 -0.64 23.34 -2 23 C-2 18.05 -2 13.1 -2 8 C-2.66 8 -3.32 8 -4 8 C-4 7.01 -4 6.02 -4 5 C-3.01 5 -2.02 5 -1 5 C-0.67 3.35 -0.34 1.7 0 0 Z " fill="#EC6468" transform="translate(675,177)"/>
<path d="M0 0 C2.475 0.495 2.475 0.495 5 1 C5 6.94 5 12.88 5 19 C3.68 19.33 2.36 19.66 1 20 C0 19 0 19 -0.11352539 17.14233398 C-0.10828857 16.35157471 -0.10305176 15.56081543 -0.09765625 14.74609375 C-0.09443359 13.89208984 -0.09121094 13.03808594 -0.08789062 12.15820312 C-0.07951172 11.26037109 -0.07113281 10.36253906 -0.0625 9.4375 C-0.05798828 8.53580078 -0.05347656 7.63410156 -0.04882812 6.70507812 C-0.03700225 4.46998686 -0.0205222 2.23502563 0 0 Z " fill="#EF898C" transform="translate(664,181)"/>
<path d="M0 0 C2.475 0.495 2.475 0.495 5 1 C5 6.94 5 12.88 5 19 C3.68 19.33 2.36 19.66 1 20 C0 19 0 19 -0.11352539 17.14233398 C-0.10828857 16.35157471 -0.10305176 15.56081543 -0.09765625 14.74609375 C-0.09443359 13.89208984 -0.09121094 13.03808594 -0.08789062 12.15820312 C-0.07951172 11.26037109 -0.07113281 10.36253906 -0.0625 9.4375 C-0.05798828 8.53580078 -0.05347656 7.63410156 -0.04882812 6.70507812 C-0.03700225 4.46998686 -0.0205222 2.23502563 0 0 Z " fill="#EF898B" transform="translate(600,181)"/>
<path d="M0 0 C0.33 0 0.66 0 1 0 C1 1.65 1 3.3 1 5 C-3.29 5 -7.58 5 -12 5 C-11.34 6.32 -10.68 7.64 -10 9 C-7.52733235 8.65555119 -7.52733235 8.65555119 -5 8 C-4.67 7.34 -4.34 6.68 -4 6 C-2.68 6 -1.36 6 0 6 C0.33 6.99 0.66 7.98 1 9 C-2.78430429 13.73038036 -2.78430429 13.73038036 -5.97265625 14.4375 C-9.31707878 14.53752011 -11.62193599 14.2268384 -14.5 12.5 C-14.995 12.005 -15.49 11.51 -16 11 C-15.67 10.34 -15.34 9.68 -15 9 C-14.34 9.33 -13.68 9.66 -13 10 C-13 8.02 -13 6.04 -13 4 C-8.71 4 -4.42 4 0 4 C0 2.68 0 1.36 0 0 Z " fill="#EB6B6F" transform="translate(866,187)"/>
<path d="M0 0 C0.763125 0.20625 1.52625 0.4125 2.3125 0.625 C2 2.5625 2 2.5625 1.3125 4.625 C0.3225 4.955 -0.6675 5.285 -1.6875 5.625 C-2.0175 6.285 -2.3475 6.945 -2.6875 7.625 C-0.0475 7.625 2.5925 7.625 5.3125 7.625 C6.3025 10.925 7.2925 14.225 8.3125 17.625 C7.6525 17.295 6.9925 16.965 6.3125 16.625 C6.3125 15.635 6.3125 14.645 6.3125 13.625 C5.6525 13.625 4.9925 13.625 4.3125 13.625 C3.9825 14.945 3.6525 16.265 3.3125 17.625 C2.3225 14.655 1.3325 11.685 0.3125 8.625 C-1.0075 8.625 -2.3275 8.625 -3.6875 8.625 C-4.0175 7.305 -4.3475 5.985 -4.6875 4.625 C-5.0175 5.945 -5.3475 7.265 -5.6875 8.625 C-6.6775 8.625 -7.6675 8.625 -8.6875 8.625 C-9.0175 9.285 -9.3475 9.945 -9.6875 10.625 C-9.6875 9.635 -9.6875 8.645 -9.6875 7.625 C-9.0275 7.295 -8.3675 6.965 -7.6875 6.625 C-7.378125 5.820625 -7.06875 5.01625 -6.75 4.1875 C-5.27248318 0.62407709 -3.8935968 -0.54329258 0 0 Z " fill="#F09B9D" transform="translate(679.6875,173.375)"/>
<path d="M0 0 C1.65 0.33 3.3 0.66 5 1 C4.67 1.99 4.34 2.98 4 4 C-0.62 4 -5.24 4 -10 4 C-10 6.31 -10 8.62 -10 11 C-5.05 11 -0.1 11 5 11 C5.33 12.32 5.66 13.64 6 15 C5 16 5 16 3.14233398 16.11352539 C2.35157471 16.10828857 1.56081543 16.10305176 0.74609375 16.09765625 C-0.10791016 16.09443359 -0.96191406 16.09121094 -1.84179688 16.08789062 C-2.73962891 16.07951172 -3.63746094 16.07113281 -4.5625 16.0625 C-5.46419922 16.05798828 -6.36589844 16.05347656 -7.29492188 16.04882812 C-9.53001314 16.03700225 -11.76497437 16.0205222 -14 16 C-14 15.67 -14 15.34 -14 15 C-8.06 15 -2.12 15 4 15 C4 14.34 4 13.68 4 13 C3.00097656 13.01160156 2.00195312 13.02320313 0.97265625 13.03515625 C-0.31769531 13.04417969 -1.60804688 13.05320313 -2.9375 13.0625 C-4.22527344 13.07410156 -5.51304687 13.08570313 -6.83984375 13.09765625 C-10 13 -10 13 -11 12 C-11.14193337 8.99668982 -11.04236378 6.00782866 -11 3 C-6.38 3 -1.76 3 3 3 C3 2.34 3 1.68 3 1 C2.01 0.67 1.02 0.34 0 0 Z " fill="#F3B9BB" transform="translate(724,185)"/>
<path d="M0 0 C0.99 0.33 1.98 0.66 3 1 C3.48309179 7.40096618 3.48309179 7.40096618 1.4375 9.9375 C-1.96060112 11.41872356 -4.32644824 11.45113794 -8 11 C-10.9375 9 -10.9375 9 -13 7 C-12.67 5.68 -12.34 4.36 -12 3 C-10.0625 3.375 -10.0625 3.375 -8 4 C-7.67 4.66 -7.34 5.32 -7 6 C-4.47266765 6.65555119 -4.47266765 6.65555119 -2 7 C-2 5.68 -2 4.36 -2 3 C-1.34 3 -0.68 3 0 3 C0 3.99 0 4.98 0 6 C0.66 6 1.32 6 2 6 C1.34 4.02 0.68 2.04 0 0 Z " fill="#EC7E81" transform="translate(844,190)"/>
<path d="M0 0 C2.97 0 5.94 0 9 0 C9 1.32 9 2.64 9 4 C7.35 4.33 5.7 4.66 4 5 C3.67 9.29 3.34 13.58 3 18 C2.01 18 1.02 18 0 18 C0 12.06 0 6.12 0 0 Z " fill="#EA5458" transform="translate(814,182)"/>
<path d="M0 0 C1.32 0.33 2.64 0.66 4 1 C4 5.95 4 10.9 4 16 C3.34 16 2.68 16 2 16 C2 18.97 2 21.94 2 25 C1.34 25 0.68 25 0 25 C0 16.75 0 8.5 0 0 Z " fill="#EC565A" transform="translate(638,182)"/>
<path d="M0 0 C1.65 0 3.3 0 5 0 C4.34309381 3.78239671 3.279869 7.21841526 1.9375 10.8125 C1.57527344 11.78832031 1.21304688 12.76414063 0.83984375 13.76953125 C0.42412109 14.87361328 0.42412109 14.87361328 0 16 C-0.66 15.01 -1.32 14.02 -2 13 C-2.99 13 -3.98 13 -5 13 C-4.07325251 10.21975752 -3.03167981 7.53030147 -1.9375 4.8125 C-1.57527344 3.91144531 -1.21304688 3.01039063 -0.83984375 2.08203125 C-0.56269531 1.39496094 -0.28554688 0.70789063 0 0 Z " fill="#EE8083" transform="translate(693,181)"/>
<path d="M0 0 C2.4375 0.25 2.4375 0.25 5 1 C5.66 1.99 6.32 2.98 7 4 C8.96361864 4.57748803 8.96361864 4.57748803 11.125 4.6875 C13.043125 4.8421875 13.043125 4.8421875 15 5 C12.64046906 7.35953094 11.22104383 7.49141413 8 8 C10.31 8.33 12.62 8.66 15 9 C15 9.33 15 9.66 15 10 C10.27021642 10.47297836 6.3672822 10.83439337 2.5 7.75 C-0.89219331 4.01858736 -0.89219331 4.01858736 -1 1 C-0.67 0.67 -0.34 0.34 0 0 Z " fill="#F1A9AC" transform="translate(576,191)"/>
<path d="M0 0 C1.65 0.33 3.3 0.66 5 1 C3.75023244 4.65316671 3.32901247 5.78065836 0 8 C-2.80590236 8.42783066 -5.1233315 8.22830702 -8 8 C-8.66 7.01 -9.32 6.02 -10 5 C-9.34 5 -8.68 5 -8 5 C-7.67 4.01 -7.34 3.02 -7 2 C-5.35 2.33 -3.7 2.66 -2 3 C-1.34 2.01 -0.68 1.02 0 0 Z " fill="#EE8A8D" transform="translate(774,193)"/>
<path d="M0 0 C2.95018209 0.81752034 4.30846588 1.97704171 5.9453125 4.5390625 C5.6953125 7.2890625 5.6953125 7.2890625 4.9453125 9.5390625 C3.6253125 9.2090625 2.3053125 8.8790625 0.9453125 8.5390625 C0.9453125 7.5490625 0.9453125 6.5590625 0.9453125 5.5390625 C-1.6946875 5.2090625 -4.3346875 4.8790625 -7.0546875 4.5390625 C-7.0546875 4.2090625 -7.0546875 3.8790625 -7.0546875 3.5390625 C-5.4046875 3.5390625 -3.7546875 3.5390625 -2.0546875 3.5390625 C-2.0546875 2.8790625 -2.0546875 2.2190625 -2.0546875 1.5390625 C-4.3646875 1.5390625 -6.6746875 1.5390625 -9.0546875 1.5390625 C-5.63202844 -0.74271021 -3.98568432 -0.63241485 0 0 Z " fill="#F2A9AB" transform="translate(590.0546875,173.4609375)"/>
<path d="M0 0 C0.66 0 1.32 0 2 0 C2 5.28 2 10.56 2 16 C0.68 16.33 -0.64 16.66 -2 17 C-3 16 -3 16 -3.09765625 12.62109375 C-3.09098369 11.22652923 -3.07902532 9.83198257 -3.0625 8.4375 C-3.05798828 7.72658203 -3.05347656 7.01566406 -3.04882812 6.28320312 C-3.03700864 4.52209987 -3.01907263 2.76103964 -3 1 C-2.34 2.32 -1.68 3.64 -1 5 C-0.67 3.35 -0.34 1.7 0 0 Z " fill="#F1A1A3" transform="translate(632,184)"/>
<path d="M0 0 C2.97 0 5.94 0 9 0 C11 5.625 11 5.625 11 9 C7.04 9 3.08 9 -1 9 C-1.33 8.34 -1.66 7.68 -2 7 C1.3 7 4.6 7 8 7 C7.34 5.35 6.68 3.7 6 2 C3.69 2 1.38 2 -1 2 C-0.67 1.34 -0.34 0.68 0 0 Z " fill="#E53439" transform="translate(767,182)"/>
<path d="M0 0 C2.875 2.375 2.875 2.375 5 5 C5 5.66 5 6.32 5 7 C1.28400809 7.20086443 0.22791555 7.1519437 -3 5 C-4.65549531 4.61500109 -6.3222433 4.27206865 -8 4 C-8 3.01 -8 2.02 -8 1 C-5.11138291 -0.44430855 -3.20352299 -0.37688506 0 0 Z " fill="#EF878A" transform="translate(842,180)"/>
<path d="M0 0 C7.33115611 -0.48073155 7.33115611 -0.48073155 10 1.4375 C11.4941922 5.26636751 11.23421553 8.94026421 11 13 C9.68 13 8.36 13 7 13 C6.8046875 11.01432292 6.609375 9.02864583 6.4140625 7.04296875 C6.07334609 4.70011858 6.07334609 4.70011858 4 2 C1.94996045 0.80767387 1.94996045 0.80767387 0 0 Z " fill="#EB6468" transform="translate(643,182)"/>
<path d="M0 0 C3 3 3 3 3.29296875 6.57421875 C3.27309338 7.94561913 3.23741111 9.31686405 3.1875 10.6875 C3.17396484 11.38939453 3.16042969 12.09128906 3.14648438 12.81445312 C3.11120182 14.54329829 3.05739583 16.27174765 3 18 C1.0625 18.5625 1.0625 18.5625 -1 19 C-2.99616554 17.00383446 -2.40983427 13.18298037 -2.5625 10.4375 C-2.60568359 9.72658203 -2.64886719 9.01566406 -2.69335938 8.28320312 C-2.79971777 6.52238088 -2.90038846 4.7612168 -3 3 C-2.34 3 -1.68 3 -1 3 C-1 7.62 -1 12.24 -1 17 C-0.34 17 0.32 17 1 17 C0.67 11.39 0.34 5.78 0 0 Z " fill="#F2B1B3" transform="translate(746,182)"/>
<path d="M0 0 C-1.98 0.99 -1.98 0.99 -4 2 C-3.67 2.66 -3.34 3.32 -3 4 C-3.804375 4.12375 -4.60875 4.2475 -5.4375 4.375 C-6.7059375 4.684375 -6.7059375 4.684375 -8 5 C-8.33 5.66 -8.66 6.32 -9 7 C-6.6568787 6.74438677 -4.32156597 6.40729228 -2 6 C-1.67 5.34 -1.34 4.68 -1 4 C-0.67 5.32 -0.34 6.64 0 8 C-3.3 8 -6.6 8 -10 8 C-10.33 7.01 -10.66 6.02 -11 5 C-11.66 5 -12.32 5 -13 5 C-10.04964557 -1.80851023 -6.4752192 -1.06151134 0 0 Z " fill="#F3A9AC" transform="translate(863,181)"/>
<path d="M0 0 C0.33 0 0.66 0 1 0 C1.12375 1.134375 1.2475 2.26875 1.375 3.4375 C1.58125 4.613125 1.7875 5.78875 2 7 C2.66 7.33 3.32 7.66 4 8 C3.75 9.875 3.75 9.875 3 12 C0.04454879 14.11103658 -2.43855901 14.19785783 -6 14 C-6.33 12.35 -6.66 10.7 -7 9 C-6.195625 9.020625 -5.39125 9.04125 -4.5625 9.0625 C-2.06645115 9.29633621 -2.06645115 9.29633621 -1 8 C-0.76924918 6.65252916 -0.58846937 5.29622435 -0.4375 3.9375 C-0.293125 2.638125 -0.14875 1.33875 0 0 Z " fill="#EF898C" transform="translate(649,187)"/>
<path d="M0 0 C1.32 0.33 2.64 0.66 4 1 C2.25 6.75 2.25 6.75 0 9 C-2.625 9.125 -2.625 9.125 -5 9 C-5.33 7.68 -5.66 6.36 -6 5 C-4.35 4.67 -2.7 4.34 -1 4 C-0.67 2.68 -0.34 1.36 0 0 Z " fill="#EC696D" transform="translate(687,199)"/>
<path d="M0 0 C1.32 0.66 2.64 1.32 4 2 C4 2.66 4 3.32 4 4 C3.34 4 2.68 4 2 4 C1.74476562 4.58265625 1.48953125 5.1653125 1.2265625 5.765625 C-0.11741087 8.21388223 -1.61810296 9.81743248 -3.625 11.75 C-4.57246094 12.67039063 -4.57246094 12.67039063 -5.5390625 13.609375 C-6.02117188 14.06828125 -6.50328125 14.5271875 -7 15 C-7.66 14.67 -8.32 14.34 -9 14 C-6.03 9.38 -3.06 4.76 0 0 Z " fill="#B6C6E1" transform="translate(55,185)"/>
<path d="M0 0 C0.99 0.495 0.99 0.495 2 1 C2 5.29 2 9.58 2 14 C2.66 14 3.32 14 4 14 C4 9.71 4 5.42 4 1 C4.66 0.67 5.32 0.34 6 0 C5.67 4.95 5.34 9.9 5 15 C3.68 15.33 2.36 15.66 1 16 C0 15 0 15 -0.09765625 11.62109375 C-0.09098369 10.22652923 -0.07902532 8.83198257 -0.0625 7.4375 C-0.05798828 6.72658203 -0.05347656 6.01566406 -0.04882812 5.28320312 C-0.03700864 3.52209987 -0.01907263 1.76103964 0 0 Z " fill="#EAA5A7" transform="translate(618,185)"/>
<path d="M0 0 C0 0.33 0 0.66 0 1 C-2.64 1.33 -5.28 1.66 -8 2 C-5.03 2.495 -5.03 2.495 -2 3 C-2 3.33 -2 3.66 -2 4 C-2.969375 4.12375 -3.93875 4.2475 -4.9375 4.375 C-6.4534375 4.684375 -6.4534375 4.684375 -8 5 C-8.33 5.66 -8.66 6.32 -9 7 C-4.545 6.505 -4.545 6.505 0 6 C0 6.66 0 7.32 0 8 C-3.3 8 -6.6 8 -10 8 C-10.33 7.01 -10.66 6.02 -11 5 C-11.66 5 -12.32 5 -13 5 C-10.04964557 -1.80851023 -6.4752192 -1.06151134 0 0 Z " fill="#F5B4B6" transform="translate(775,181)"/>
<path d="M0 0 C0.33 0 0.66 0 1 0 C1 1.98 1 3.96 1 6 C1.99 6 2.98 6 4 6 C4 6.66 4 7.32 4 8 C3.01 8 2.02 8 1 8 C1.02320313 8.69867188 1.04640625 9.39734375 1.0703125 10.1171875 C1.08835937 11.02726563 1.10640625 11.93734375 1.125 12.875 C1.14820313 13.77992188 1.17140625 14.68484375 1.1953125 15.6171875 C1 18 1 18 -1 20 C-1 16.04 -1 12.08 -1 8 C-1.99 8 -2.98 8 -4 8 C-4 7.34 -4 6.68 -4 6 C-3.01 6 -2.02 6 -1 6 C-1.020625 5.195625 -1.04125 4.39125 -1.0625 3.5625 C-1 1 -1 1 0 0 Z " fill="#E83539" transform="translate(755,176)"/>
<path d="M0 0 C0.66 0.66 1.32 1.32 2 2 C1.625 4.625 1.625 4.625 1 7 C0.34 7 -0.32 7 -1 7 C-1.2475 7.5775 -1.495 8.155 -1.75 8.75 C-3.16683317 11.3002997 -4.87627537 13.01785701 -7 15 C-7.66 14.67 -8.32 14.34 -9 14 C-6.03 9.38 -3.06 4.76 0 0 Z " fill="#A5B6D5" transform="translate(83,185)"/>
<path d="M0 0 C2.31 0 4.62 0 7 0 C8.53266582 3.06533164 8.10276471 6.26754272 8.0625 9.625 C8.05798828 10.33140625 8.05347656 11.0378125 8.04882812 11.765625 C8.03703875 13.51045275 8.01910324 15.255237 8 17 C7.34 17 6.68 17 6 17 C6 12.38 6 7.76 6 3 C3.03 2.505 3.03 2.505 0 2 C0 1.34 0 0.68 0 0 Z " fill="#E7373C" transform="translate(739,182)"/>
<path d="M0 0 C0.99 0 1.98 0 3 0 C2.51286902 4.41510774 1.14946803 6.30446645 -2.0625 9.3125 C-2.79597656 10.00988281 -3.52945313 10.70726562 -4.28515625 11.42578125 C-4.85105469 11.94527344 -5.41695312 12.46476563 -6 13 C-6.66 12.67 -7.32 12.34 -8 12 C-6.74151422 9.9912056 -5.46948954 7.99370702 -4.1875 6 C-3.47980469 4.88625 -2.77210937 3.7725 -2.04296875 2.625 C-1.36878906 1.75875 -0.69460937 0.8925 0 0 Z " fill="#B6C5DF" transform="translate(68,187)"/>
<path d="M0 0 C1 3 1 3 1 7 C0.34 7 -0.32 7 -1 7 C-1.226875 7.5775 -1.45375 8.155 -1.6875 8.75 C-3.33038023 11.5663661 -5.39533227 13.08077114 -8 15 C-8 10.91518119 -6.29880669 9.15295347 -4 5.8125 C-3.2575 4.72582031 -2.515 3.63914063 -1.75 2.51953125 C-1.1725 1.68808594 -0.595 0.85664063 0 0 Z " fill="#A1B1CF" transform="translate(97,185)"/>
<path d="M0 0 C1.32 0.33 2.64 0.66 4 1 C3.84660156 1.52078125 3.69320312 2.0415625 3.53515625 2.578125 C2.86017489 5.63278515 2.65588882 8.63015971 2.4375 11.75 C2.35371094 12.92046875 2.26992188 14.0909375 2.18359375 15.296875 C2.12300781 16.18890625 2.06242188 17.0809375 2 18 C1.34 18 0.68 18 0 18 C0 12.06 0 6.12 0 0 Z " fill="#EA343A" transform="translate(609,182)"/>
<path d="M0 0 C1.06424161 3.19272484 1.10540102 3.95723825 0 7 C-1.3046875 8.88671875 -1.3046875 8.88671875 -2.875 10.6875 C-3.38804688 11.28949219 -3.90109375 11.89148438 -4.4296875 12.51171875 C-6 14 -6 14 -9 15 C-7.61219205 11.10993227 -5.7847773 8.03441292 -3.375 4.6875 C-2.74335937 3.80449219 -2.11171875 2.92148438 -1.4609375 2.01171875 C-0.97882813 1.34785156 -0.49671875 0.68398437 0 0 Z " fill="#95A5C7" transform="translate(111,185)"/>
<path d="M0 0 C0.99 0 1.98 0 3 0 C2.625 2.4375 2.625 2.4375 2 5 C-0.52475462 6.26237731 -2.31200466 6.09856404 -5.125 6.0625 C-6.03507813 6.05347656 -6.94515625 6.04445312 -7.8828125 6.03515625 C-8.58148437 6.02355469 -9.28015625 6.01195312 -10 6 C-9.67 5.34 -9.34 4.68 -9 4 C-6.93359375 3.3671875 -6.93359375 3.3671875 -4.4375 2.875 C-3.61121094 2.70742187 -2.78492188 2.53984375 -1.93359375 2.3671875 C-0.97646484 2.18542969 -0.97646484 2.18542969 0 2 C0 1.34 0 0.68 0 0 Z " fill="#EA5155" transform="translate(593,194)"/>
<path d="M0 0 C0.33 0 0.66 0 1 0 C1 1.65 1 3.3 1 5 C-3.29 5 -7.58 5 -12 5 C-10.33333333 9.33333333 -10.33333333 9.33333333 -6 11 C-10.455 11.495 -10.455 11.495 -15 12 C-15 11.01 -15 10.02 -15 9 C-14.34 9.33 -13.68 9.66 -13 10 C-13 8.02 -13 6.04 -13 4 C-8.71 4 -4.42 4 0 4 C0 2.68 0 1.36 0 0 Z " fill="#F5C3C5" transform="translate(866,187)"/>
<path d="M0 0 C2 2 2 2 3 7 C-6.57 7 -16.14 7 -26 7 C-26 6.67 -26 6.34 -26 6 C-17.42 5.67 -8.84 5.34 0 5 C0 3.35 0 1.7 0 0 Z " fill="#9699B9" transform="translate(244,105)"/>
<path d="M0 0 C0.66 0.99 1.32 1.98 2 3 C2.99 3.33 3.98 3.66 5 4 C5 4.66 5 5.32 5 6 C5.99 6.33 6.98 6.66 8 7 C7.34 7.66 6.68 8.32 6 9 C3.69 8.34 1.38 7.68 -1 7 C-1.04254356 5.00045254 -1.04080783 2.99958364 -1 1 C-0.67 0.67 -0.34 0.34 0 0 Z " fill="#EA5256" transform="translate(579,179)"/>
<path d="M0 0 C1.98 0 3.96 0 6 0 C6 0.99 6 1.98 6 3 C5.03320312 3.29003906 5.03320312 3.29003906 4.046875 3.5859375 C1.65648799 4.88708247 1.65648799 4.88708247 1.390625 8.0390625 C1.34421875 9.22242188 1.2978125 10.40578125 1.25 11.625 C1.19328125 12.81351563 1.1365625 14.00203125 1.078125 15.2265625 C1.05234375 16.14179688 1.0265625 17.05703125 1 18 C0.67 18 0.34 18 0 18 C0 12.06 0 6.12 0 0 Z " fill="#F19497" transform="translate(785,182)"/>
<path d="M0 0 C0.99 0.33 1.98 0.66 3 1 C3 3.31 3 5.62 3 8 C1.02 8.99 1.02 8.99 -1 10 C-1 9.67 -1 9.34 -1 9 C-3.31 8.67 -5.62 8.34 -8 8 C-7.67 7.34 -7.34 6.68 -7 6 C-5.35 6.33 -3.7 6.66 -2 7 C-2 5.68 -2 4.36 -2 3 C-1.34 3 -0.68 3 0 3 C0 3.99 0 4.98 0 6 C0.66 6 1.32 6 2 6 C1.34 4.02 0.68 2.04 0 0 Z " fill="#F09C9F" transform="translate(844,190)"/>
<path d="M0 0 C1.32 0 2.64 0 4 0 C4.99 3.3 5.98 6.6 7 10 C6.34 9.67 5.68 9.34 5 9 C5 8.01 5 7.02 5 6 C4.34 6 3.68 6 3 6 C2.67 7.32 2.34 8.64 2 10 C1.34 6.7 0.68 3.4 0 0 Z " fill="#EE878A" transform="translate(681,181)"/>
<path d="M0 0 C3.21043882 1.38188453 5.04936365 2.92421903 7.25 5.625 C8.03117187 6.57246094 8.03117187 6.57246094 8.828125 7.5390625 C9.40820312 8.26222656 9.40820312 8.26222656 10 9 C9.34 9 8.68 9 8 9 C7.67 9.99 7.34 10.98 7 12 C5.83061933 10.18924982 4.66456267 8.37635257 3.5 6.5625 C2.8503125 5.55316406 2.200625 4.54382813 1.53125 3.50390625 C0 1 0 1 0 0 Z " fill="#C3D0E5" transform="translate(46,68)"/>
<path d="M0 0 C0.33 1.32 0.66 2.64 1 4 C1.99 3.67 2.98 3.34 4 3 C3.25 8.75 3.25 8.75 1 11 C0.67 10.01 0.34 9.02 0 8 C-0.99 8 -1.98 8 -3 8 C-2.09456151 5.28368454 -1.07525194 2.65228812 0 0 Z " fill="#F1A1A3" transform="translate(691,186)"/>
<path d="M0 0 C4.2742558 1.5830577 6.26531794 4.50568404 9 8 C8.34 8 7.68 8 7 8 C6.67 8.99 6.34 9.98 6 11 C4.9944239 9.54550599 3.99569565 8.08627557 3 6.625 C2.443125 5.81289062 1.88625 5.00078125 1.3125 4.1640625 C0 2 0 2 0 0 Z " fill="#A8B5D1" transform="translate(102,68)"/>
<path d="M0 0 C1.99954746 -0.04254356 4.00041636 -0.04080783 6 0 C6.33 0.33 6.66 0.66 7 1 C6.909084 3.70108504 6.76259234 6.36930311 6.5625 9.0625 C6.51029297 9.82111328 6.45808594 10.57972656 6.40429688 11.36132812 C6.27424165 13.24121722 6.13771962 15.12065685 6 17 C5.67 17 5.34 17 5 17 C4.97421875 16.02417969 4.9484375 15.04835937 4.921875 14.04296875 C4.86515625 12.77066406 4.8084375 11.49835938 4.75 10.1875 C4.70359375 8.92292969 4.6571875 7.65835938 4.609375 6.35546875 C4.32743779 2.92847161 4.32743779 2.92847161 1.953125 1.05078125 C1.30859375 0.70402344 0.6640625 0.35726562 0 0 Z " fill="#E4353A" transform="translate(625,182)"/>
<path d="M0 0 C1.32 0 2.64 0 4 0 C4.33 1.98 4.66 3.96 5 6 C4.01 6.33 3.02 6.66 2 7 C1.34 6.67 0.68 6.34 0 6 C-0.6875 3.5 -0.6875 3.5 -1 1 C-0.67 0.67 -0.34 0.34 0 0 Z " fill="#EC7A7D" transform="translate(591,176)"/>
<path d="M0 0 C3.61322401 1.806612 4.83748791 2.66418971 7.25 5.625 C8.03117187 6.57246094 8.03117187 6.57246094 8.828125 7.5390625 C9.40820312 8.26222656 9.40820312 8.26222656 10 9 C9.34 9 8.68 9 8 9 C7.34 9.66 6.68 10.32 6 11 C4.02 7.37 2.04 3.74 0 0 Z " fill="#BCCAE1" transform="translate(60,68)"/>
<path d="M0 0 C3.21043882 1.38188453 5.04936365 2.92421903 7.25 5.625 C8.03117187 6.57246094 8.03117187 6.57246094 8.828125 7.5390625 C9.40820312 8.26222656 9.40820312 8.26222656 10 9 C8.68 9.33 7.36 9.66 6 10 C4.99723227 8.52270825 3.99785546 7.04311423 3 5.5625 C2.443125 4.73878906 1.88625 3.91507812 1.3125 3.06640625 C0 1 0 1 0 0 Z " fill="#ABBBD7" transform="translate(74,68)"/>
<path d="M0 0 C2.97 0 5.94 0 9 0 C9.33 1.32 9.66 2.64 10 4 C9.01 4.33 8.02 4.66 7 5 C6.67 4.01 6.34 3.02 6 2 C3.69 2 1.38 2 -1 2 C-0.67 1.34 -0.34 0.68 0 0 Z " fill="#E95659" transform="translate(767,182)"/>
<path d="M0 0 C1.32 0 2.64 0 4 0 C4.33 2.31 4.66 4.62 5 7 C3.125 6.8125 3.125 6.8125 1 6 C-0.25 3.4375 -0.25 3.4375 -1 1 C-0.67 0.67 -0.34 0.34 0 0 Z " fill="#EC6C70" transform="translate(576,191)"/>
<path d="M0 0 C0.33 0.66 0.66 1.32 1 2 C2.32 1.67 3.64 1.34 5 1 C4 4 4 4 1 6 C-2.1875 6.125 -2.1875 6.125 -5 6 C-3.68 5.34 -2.36 4.68 -1 4 C-2.32 3.34 -3.64 2.68 -5 2 C-3.35 1.34 -1.7 0.68 0 0 Z " fill="#F1A5A7" transform="translate(804,195)"/>
<path d="M0 0 C0.99 0.33 1.98 0.66 3 1 C3 1.66 3 2.32 3 3 C2.34 3 1.68 3 1 3 C1 5.97 1 8.94 1 12 C0.34 12 -0.32 12 -1 12 C-1.02687279 10.18757948 -1.04633715 8.37504767 -1.0625 6.5625 C-1.07410156 5.55316406 -1.08570313 4.54382813 -1.09765625 3.50390625 C-1 1 -1 1 0 0 Z " fill="#EB3237" transform="translate(639,195)"/>
<path d="M0 0 C4.2742558 1.5830577 6.26531794 4.50568404 9 8 C7.68 8.33 6.36 8.66 5 9 C4.16094435 7.87926138 3.32892169 6.75325453 2.5 5.625 C2.0359375 4.99851562 1.571875 4.37203125 1.09375 3.7265625 C0 2 0 2 0 0 Z " fill="#AEBCD5" transform="translate(88,68)"/>
<path d="M0 0 C1.4540625 0.0309375 1.4540625 0.0309375 2.9375 0.0625 C2.9375 1.3825 2.9375 2.7025 2.9375 4.0625 C0.9575 4.3925 -1.0225 4.7225 -3.0625 5.0625 C-3.625 3.125 -3.625 3.125 -4.0625 1.0625 C-3.0625 0.0625 -3.0625 0.0625 0 0 Z " fill="#EB7074" transform="translate(820.0625,181.9375)"/>
<path d="M0 0 C0.33 0 0.66 0 1 0 C1 2.97 1 5.94 1 9 C-0.32 9.33 -1.64 9.66 -3 10 C-2.69201674 8.51988629 -2.378482 7.04092675 -2.0625 5.5625 C-1.88847656 4.73878906 -1.71445312 3.91507813 -1.53515625 3.06640625 C-1 1 -1 1 0 0 Z " fill="#E9393E" transform="translate(808,187)"/>
<path d="M0 0 C1.65 0 3.3 0 5 0 C5 1.65 5 3.3 5 5 C3.35 4.67 1.7 4.34 0 4 C0 2.68 0 1.36 0 0 Z " fill="#F1A4A6" transform="translate(824,174)"/>
<path d="M0 0 C2.475 0.495 2.475 0.495 5 1 C5 2.32 5 3.64 5 5 C3.35 5 1.7 5 0 5 C0 3.35 0 1.7 0 0 Z " fill="#F1A4A6" transform="translate(664,174)"/>
<path d="M0 0 C1.32 0 2.64 0 4 0 C4.33 0.99 4.66 1.98 5 3 C4.01 4.485 4.01 4.485 3 6 C0.525 5.01 0.525 5.01 -2 4 C-1.34 2.68 -0.68 1.36 0 0 Z " fill="#EF9D9F" transform="translate(862,193)"/>
<path d="M0 0 C2.475 0.495 2.475 0.495 5 1 C4.67 2.32 4.34 3.64 4 5 C2.68 5 1.36 5 0 5 C0 3.35 0 1.7 0 0 Z " fill="#F09FA1" transform="translate(600,174)"/>
<path d="M0 0 C2.31 0 4.62 0 7 0 C6.67 0.99 6.34 1.98 6 3 C3.69 3 1.38 3 -1 3 C-0.67 2.01 -0.34 1.02 0 0 Z " fill="#EB696D" transform="translate(837,198)"/>
<path d="M0 0 C1 4 1 4 0.00390625 5.703125 C-1.33072917 7.13541667 -2.66536458 8.56770833 -4 10 C-4.66 9.67 -5.32 9.34 -6 9 C-4.02 6.03 -2.04 3.06 0 0 Z " fill="#CFD9E9" transform="translate(52,190)"/>
<path d="M0 0 C0.66 0 1.32 0 2 0 C2.66 1.98 3.32 3.96 4 6 C3.34 6 2.68 6 2 6 C1.67 6.99 1.34 7.98 1 9 C-0.4783226 6.04335481 -0.06032783 3.25770263 0 0 Z " fill="#E95C60" transform="translate(684,187)"/>
<path d="M0 0 C2.475 0.495 2.475 0.495 5 1 C5.33 2.65 5.66 4.3 6 6 C5.34 6 4.68 6 4 6 C4 5.01 4 4.02 4 3 C2.68 2.67 1.36 2.34 0 2 C0 1.34 0 0.68 0 0 Z " fill="#E9373C" transform="translate(840,190)"/>
<path d="M0 0 C2.31 0.66 4.62 1.32 7 2 C7 2.33 7 2.66 7 3 C2.545 3.495 2.545 3.495 -2 4 C-2 3.01 -2 2.02 -2 1 C-1.34 1.33 -0.68 1.66 0 2 C0 1.34 0 0.68 0 0 Z " fill="#F09D9F" transform="translate(853,195)"/>
<path d="M0 0 C2.0625 0.4375 2.0625 0.4375 4 1 C3.01 1.33 2.02 1.66 1 2 C1 2.66 1 3.32 1 4 C2.32 4.33 3.64 4.66 5 5 C3.35 5 1.7 5 0 5 C-0.5625 3.0625 -0.5625 3.0625 -1 1 C-0.67 0.67 -0.34 0.34 0 0 Z " fill="#F0BABB" transform="translate(682,203)"/>
</svg>
