<?xml version="1.0" standalone="no"?>
<!DOCTYPE svg PUBLIC "-//W3C//DTD SVG 20010904//EN"
 "http://www.w3.org/TR/2001/REC-SVG-20010904/DTD/svg10.dtd">
<svg version="1.0" xmlns="http://www.w3.org/2000/svg"
 width="912.000000pt" height="274.000000pt" viewBox="0 0 912.000000 274.000000"
 preserveAspectRatio="xMidYMid meet">

<g transform="translate(0.000000,274.000000) scale(0.100000,-0.100000)"
fill="#000000" stroke="none">
<path d="M6890 2060 c0 -6 8 -13 18 -16 71 -22 113 -72 157 -191 7 -21 28 -71
44 -110 17 -40 45 -106 62 -145 16 -40 36 -89 44 -108 52 -132 155 -365 162
-367 9 -3 83 165 379 860 l33 77 -30 0 c-21 0 -32 -6 -39 -22 -52 -127 -74
-180 -90 -218 -10 -25 -33 -79 -50 -120 -52 -126 -67 -161 -111 -260 -23 -52
-45 -98 -48 -102 -6 -7 -36 58 -121 262 -129 310 -153 359 -191 399 -18 18
-51 42 -73 52 -44 20 -146 26 -146 9z"/>
<path d="M1130 2055 c0 -2 25 -30 55 -61 30 -32 78 -90 105 -130 246 -355 207
-734 -109 -1056 l-65 -68 381 0 381 0 71 77 c40 43 91 107 116 143 45 67 105
185 105 208 0 9 38 12 154 12 l154 0 -16 -42 c-39 -103 -119 -223 -220 -329
l-64 -69 378 0 379 0 68 72 c89 94 179 231 216 328 109 283 27 594 -227 863
l-55 57 -378 0 -378 0 60 -62 c94 -98 195 -259 224 -355 l6 -23 -150 0 c-99 0
-151 4 -151 11 0 18 -78 167 -121 230 -22 33 -70 92 -106 130 l-65 69 -374 0
c-206 0 -374 -2 -374 -5z"/>
<path d="M3750 2051 c0 -4 19 -12 43 -17 77 -16 77 -16 77 -486 l0 -408 60 0
60 0 0 225 0 225 214 0 215 0 3 -201 3 -201 28 -24 c25 -21 37 -24 118 -24 53
0 89 4 89 10 0 6 -11 10 -24 10 -44 0 -73 18 -85 51 -7 22 -11 164 -11 440 l0
409 -60 0 -60 0 0 -210 0 -210 -215 0 -215 0 0 165 c0 198 -8 228 -67 244 -46
13 -173 15 -173 2z"/>
<path d="M4662 2048 c3 -7 15 -15 28 -16 38 -6 98 -49 131 -95 17 -23 87 -126
155 -229 l124 -188 0 -190 0 -190 60 0 60 0 0 195 0 195 97 158 c53 86 125
203 160 259 35 56 63 104 63 107 0 4 -11 6 -24 6 -20 0 -37 -21 -103 -126 -43
-70 -107 -174 -143 -232 -36 -58 -69 -105 -74 -106 -5 -1 -58 76 -117 169
-126 199 -178 261 -234 280 -52 18 -188 20 -183 3z"/>
<path d="M5590 2052 c0 -7 18 -15 39 -18 48 -8 80 -39 92 -91 5 -21 9 -210 9
-420 l0 -383 25 0 25 0 2 367 3 366 65 -82 c36 -46 73 -93 83 -105 10 -11 116
-143 235 -293 120 -150 222 -271 227 -269 6 2 11 169 13 469 l2 467 -25 0 -25
0 0 -345 c0 -190 -3 -345 -6 -345 -4 0 -12 6 -18 14 -488 609 -506 632 -555
652 -46 20 -191 32 -191 16z"/>
<path d="M6660 1641 c0 -266 4 -429 10 -448 6 -17 22 -35 36 -42 31 -14 194
-15 194 -1 0 6 -10 10 -22 10 -44 0 -69 13 -83 41 -13 23 -15 99 -15 444 l0
415 -60 0 -60 0 0 -419z"/>
<path d="M8091 1958 c-62 -147 -88 -208 -181 -428 -45 -107 -100 -235 -121
-284 -22 -49 -39 -93 -39 -98 0 -5 12 -8 26 -6 23 3 32 17 79 128 l52 125 202
0 202 0 34 -79 c19 -45 51 -96 72 -118 42 -43 113 -71 169 -66 45 4 56 24 17
33 -70 16 -83 38 -228 395 -48 117 -141 343 -179 435 -38 91 -52 86 -105 -37z
m49 -155 c12 -32 45 -114 74 -183 30 -69 57 -135 60 -147 l7 -23 -169 0 c-93
0 -171 3 -174 6 -5 5 32 97 135 331 18 40 35 73 39 73 4 0 16 -26 28 -57z"/>
<path d="M1060 2015 c0 -3 16 -30 35 -60 182 -286 224 -590 118 -873 -32 -85
-84 -188 -135 -267 -35 -53 81 75 121 134 58 85 86 139 117 227 26 73 29 90
29 219 -1 125 -4 148 -27 216 -32 92 -68 165 -118 239 -39 56 -140 176 -140
165z"/>
<path d="M838 1920 c63 -112 84 -158 118 -260 26 -80 28 -95 29 -260 0 -165
-2 -180 -29 -265 -29 -94 -75 -192 -133 -285 l-34 -55 42 45 c209 226 286 495
214 744 -40 139 -112 267 -209 371 l-46 50 48 -85z"/>
<path d="M945 1975 c78 -123 133 -250 165 -382 19 -80 22 -112 17 -225 -7
-203 -48 -325 -182 -543 -17 -29 -17 -29 16 5 267 275 321 616 149 938 -39 71
-129 193 -166 222 -18 14 -18 14 1 -15z"/>
<path d="M5802 974 c-35 -24 -30 -70 11 -94 17 -11 42 -20 53 -20 23 0 74 -35
74 -51 0 -20 -42 -49 -71 -49 -22 0 -40 9 -60 31 -32 34 -45 34 -34 0 8 -28
55 -51 100 -51 43 0 85 36 85 74 0 24 -40 66 -64 66 -30 0 -85 22 -90 36 -3 8
-1 24 4 35 15 27 85 27 102 -1 13 -21 38 -27 38 -10 0 6 -9 19 -20 30 -25 25
-95 27 -128 4z"/>
<path d="M6010 975 c0 -8 5 -15 10 -15 6 0 10 7 10 15 0 8 -4 15 -10 15 -5 0
-10 -7 -10 -15z"/>
<path d="M6570 865 c0 -104 2 -125 15 -125 13 0 15 21 15 125 0 104 -2 125
-15 125 -13 0 -15 -21 -15 -125z"/>
<path d="M6650 974 c0 -17 22 -14 28 4 2 7 -3 12 -12 12 -9 0 -16 -7 -16 -16z"/>
<path d="M6747 983 c-4 -3 -7 -19 -7 -35 0 -18 -5 -28 -15 -28 -8 0 -15 -4
-15 -10 0 -5 7 -10 15 -10 12 0 15 -16 15 -80 0 -47 4 -80 10 -80 6 0 10 33
10 79 0 73 2 79 23 86 l22 8 -23 4 c-31 6 -27 47 6 51 12 2 22 8 22 13 0 10
-53 12 -63 2z"/>
<path d="M7110 865 l0 -126 88 3 c108 4 116 22 10 26 l-78 3 0 44 0 45 70 0
c40 0 70 4 70 10 0 6 -30 10 -70 10 l-70 0 0 45 0 45 75 0 c43 0 75 4 75 10 0
6 -35 10 -85 10 l-85 0 0 -125z"/>
<path d="M8257 984 c-8 -8 1 -24 14 -24 5 0 9 7 9 15 0 15 -12 20 -23 9z"/>
<path d="M7548 974 c-5 -4 -8 -18 -8 -31 0 -15 -6 -23 -17 -23 -17 -1 -17 -1
0 -14 13 -10 17 -28 17 -84 0 -63 2 -71 21 -77 27 -9 39 4 16 16 -23 14 -26
139 -2 139 8 0 15 5 15 10 0 6 -6 10 -14 10 -9 0 -16 12 -18 31 -2 17 -6 27
-10 23z"/>
<path d="M7385 914 c-14 -7 -25 -9 -25 -3 0 5 -4 9 -10 9 -6 0 -10 -37 -10
-90 0 -53 4 -90 10 -90 6 0 10 30 10 70 0 63 2 71 24 85 19 13 29 14 45 5 18
-9 21 -20 21 -85 0 -60 3 -75 15 -75 12 0 15 14 15 64 0 36 -4 76 -9 89 -11
30 -51 39 -86 21z"/>
<path d="M8359 916 c-12 -6 -27 -19 -33 -28 -14 -24 15 -51 72 -67 23 -6 42
-17 42 -24 0 -39 -72 -51 -91 -16 -8 16 -14 18 -22 9 -9 -9 -6 -16 12 -31 44
-36 121 -14 121 36 0 26 -29 46 -82 59 -37 9 -38 43 -3 52 18 4 32 1 45 -11
23 -20 39 -13 21 9 -16 19 -56 25 -82 12z"/>
<path d="M6010 830 c0 -53 4 -90 10 -90 6 0 10 37 10 90 0 53 -4 90 -10 90 -6
0 -10 -37 -10 -90z"/>
<path d="M6090 830 c0 -53 4 -90 10 -90 6 0 10 27 10 61 0 65 10 93 36 103 32
12 44 -13 44 -90 0 -59 3 -74 15 -74 12 0 15 14 15 69 0 60 3 72 22 85 15 11
26 12 40 5 15 -8 18 -22 18 -84 0 -60 3 -75 15 -75 12 0 15 14 15 64 0 91 -11
116 -53 116 -18 0 -38 -5 -45 -12 -9 -9 -15 -9 -24 0 -7 7 -26 12 -43 12 -17
0 -36 -5 -43 -12 -9 -9 -12 -9 -12 0 0 7 -4 12 -10 12 -6 0 -10 -37 -10 -90z"/>
<path d="M6380 795 c0 -77 4 -125 10 -125 6 0 10 20 10 45 0 42 11 58 25 35 9
-15 48 -12 72 5 39 27 43 114 7 149 -18 19 -75 21 -92 4 -9 -9 -12 -9 -12 0 0
7 -4 12 -10 12 -6 0 -10 -48 -10 -125z m106 94 c21 -24 24 -90 4 -114 -16 -20
-49 -19 -72 2 -25 23 -24 87 2 113 25 25 42 25 66 -1z"/>
<path d="M6650 829 c0 -68 3 -90 13 -87 8 3 13 32 14 91 2 70 -1 87 -12 87
-12 0 -15 -18 -15 -91z"/>
<path d="M6820 912 c0 -4 12 -39 27 -77 37 -98 34 -131 -12 -148 -18 -7 3 -19
23 -13 12 4 29 32 47 79 15 39 36 93 46 120 15 36 16 47 6 47 -8 0 -24 -31
-37 -70 -13 -39 -27 -67 -31 -63 -4 5 -17 36 -29 71 -13 34 -27 62 -31 62 -5
0 -9 -3 -9 -8z"/>
<path d="M7641 894 c-46 -59 -11 -154 56 -154 33 0 73 25 73 46 0 20 -13 17
-28 -6 -7 -12 -23 -20 -41 -20 -31 0 -45 12 -55 48 -7 21 -5 22 64 22 l72 0
-7 28 c-11 43 -34 62 -76 62 -29 0 -42 -6 -58 -26z m91 -1 c33 -29 22 -43 -32
-43 -54 0 -62 10 -33 42 20 22 41 23 65 1z"/>
<path d="M7820 830 c0 -73 3 -90 15 -90 12 0 15 14 15 69 0 72 14 99 45 87 9
-3 15 0 15 9 0 18 -31 20 -49 3 -11 -10 -14 -10 -18 0 -13 35 -23 2 -23 -78z"/>
<path d="M7940 795 c0 -77 4 -125 10 -125 6 0 10 18 10 39 0 40 13 61 25 41
11 -18 56 -10 80 15 30 29 34 97 9 133 -17 25 -81 31 -102 10 -9 -9 -12 -9
-12 0 0 7 -4 12 -10 12 -6 0 -10 -48 -10 -125z m110 93 c39 -42 16 -128 -35
-128 -45 0 -69 64 -44 113 23 43 48 48 79 15z"/>
<path d="M8140 830 c0 -107 18 -122 22 -19 3 73 5 77 53 95 19 7 19 8 -3 12
-13 2 -30 -2 -38 -8 -10 -9 -14 -9 -14 -1 0 6 -4 11 -10 11 -6 0 -10 -37 -10
-90z"/>
<path d="M8255 833 c0 -59 4 -88 13 -91 9 -3 12 20 12 87 0 68 -3 91 -13 91
-9 0 -13 -22 -12 -87z"/>
<path d="M8522 900 c-16 -16 -22 -32 -22 -66 0 -55 33 -94 78 -94 36 0 79 31
68 49 -6 9 -12 7 -23 -8 -19 -29 -67 -28 -87 1 -29 41 -21 48 54 48 l70 0 -6
28 c-4 15 -14 35 -22 45 -21 24 -82 22 -110 -3z m86 -6 c40 -28 28 -44 -33
-44 -48 0 -54 2 -48 18 8 19 33 41 48 42 6 0 21 -7 33 -16z"/>
</g>
</svg>
